<svg width="128" height="128" viewBox="0 0 128 128" fill="none" xmlns="http://www.w3.org/2000/svg">
  <!-- Background circle -->
  <circle cx="64" cy="64" r="64" fill="#C7522A"/>

  <!-- Open book icon -->
  <path d="M32 42C32 40.8954 32.8954 40 34 40H62C63.1046 40 64 40.8954 64 42V86C64 87.1046 63.1046 88 62 88H34C32.8954 88 32 87.1046 32 86V42Z" fill="white" fill-opacity="0.95"/>
  <path d="M64 42C64 40.8954 64.8954 40 66 40H94C95.1046 40 96 40.8954 96 42V86C96 87.1046 95.1046 88 94 88H66C64.8954 88 64 87.1046 64 86V42Z" fill="white" fill-opacity="0.95"/>

  <!-- Book spine/center fold -->
  <rect x="62" y="40" width="4" height="48" fill="#C7522A"/>

  <!-- Page lines (left page) -->
  <line x1="38" y1="50" x2="58" y2="50" stroke="#C7522A" stroke-width="1.5" stroke-linecap="round" stroke-opacity="0.4"/>
  <line x1="38" y1="58" x2="56" y2="58" stroke="#C7522A" stroke-width="1.5" stroke-linecap="round" stroke-opacity="0.4"/>
  <line x1="38" y1="66" x2="58" y2="66" stroke="#C7522A" stroke-width="1.5" stroke-linecap="round" stroke-opacity="0.4"/>
  <line x1="38" y1="74" x2="54" y2="74" stroke="#C7522A" stroke-width="1.5" stroke-linecap="round" stroke-opacity="0.4"/>

  <!-- Page lines (right page) -->
  <line x1="70" y1="50" x2="90" y2="50" stroke="#C7522A" stroke-width="1.5" stroke-linecap="round" stroke-opacity="0.4"/>
  <line x1="72" y1="58" x2="90" y2="58" stroke="#C7522A" stroke-width="1.5" stroke-linecap="round" stroke-opacity="0.4"/>
  <line x1="70" y1="66" x2="90" y2="66" stroke="#C7522A" stroke-width="1.5" stroke-linecap="round" stroke-opacity="0.4"/>
  <line x1="74" y1="74" x2="90" y2="74" stroke="#C7522A" stroke-width="1.5" stroke-linecap="round" stroke-opacity="0.4"/>
</svg>
